PathFileType	4	(X/Y/Z)	/Users/niels/Desktop/University/Third Semester/Perception and Action/Exam/Gymnastics Motion Tracking/Code for Gym Tracking/Analyzed Data/Webcam_Backflip/id4_5_baseline_Sports2D/id4_5_baseline_Sports2D_px_person00.trc
DataRate	CameraRate	NumFrames	NumMarkers	Units	OrigDataRate	OrigDataStartFrame	OrigNumFrames
29.8125	29.8125	7	22	m	29.8125	20	160
Frame#	Time	Hip			RHip			RKnee			RAnkle			RBigToe			RSmallToe			RHeel			LHip			LKnee			LAnkle			LBigToe			LSmallToe			LHeel			Neck			Head			Nose			RShoulder			RElbow			RWrist			LShoulder			LElbow			LWrist		
		X1	Y1	Z1	X2	Y2	Z2	X3	Y3	Z3	X4	Y4	Z4	X5	Y5	Z5	X6	Y6	Z6	X7	Y7	Z7	X8	Y8	Z8	X9	Y9	Z9	X10	Y10	Z10	X11	Y11	Z11	X12	Y12	Z12	X13	Y13	Z13	X14	Y14	Z14	X15	Y15	Z15	X16	Y16	Z16	X17	Y17	Z17	X18	Y18	Z18	X19	Y19	Z19	X20	Y20	Z20	X21	Y21	Z21	X22	Y22	Z22
20	0.670859538784067	0.9340281906781955	-0.4678172955364538	0.0	0.9360951844294815	-0.4672494439539715	0.0	1.0303169488061752	-0.4923831638383124	0.0	1.0088427191178968	-0.5985982708964837	0.0	1.0222866812251123	-0.6397277025915235	0.0	1.0192792734892655	-0.6387181354595163	0.0	0.9995924980627501	-0.6132422313399344	0.0	0.9293891671078852	-0.4673934809286098	0.0	1.02088371229886	-0.49055444668198084	0.0	1.0070905921904916	-0.5954987324958527	0.0	1.0256614829810555	-0.6368619313972758	0.0	1.0179573309796395	-0.6366229414125973	0.0	0.9954200926460871	-0.6173581684051724	0.0	0.8262992207244694	-0.3899815026220801	0.0	0.7621966664612042	-0.3498486119017658	0.0	0.8034181914547153	-0.34958043493288593	0.0	0.8333826219173066	-0.3942683562262046	0.0	0.8655312639168978	-0.36264568757795584	0.0	0.8588827080613419	-0.2987106805141108	0.0	0.830739129182121	-0.39291460711061216	0.0	0.873310902498471	-0.36072505767251156	0.0	0.8871700749901062	-0.3106398892790176	0.0
21	0.7044025157232703	0.9340108021699167	-0.4440574193657678	0.0	0.9360401632170129	-0.44362725405357667	0.0	1.029551484447871	-0.4302896933462007	0.0	1.025427255048607	-0.5327481887292671	0.0	1.0449168361106895	-0.5644238193379522	0.0	1.0433505245701127	-0.5647044156138142	0.0	1.0189677199527354	-0.548077493603506	0.0	0.9306109000965324	-0.44331540831667887	0.0	1.020678714001941	-0.4306106578712196	0.0	1.0232672222595085	-0.5295289910356193	0.0	1.0456707946886947	-0.562377506829227	0.0	1.0396150083268165	-0.5633721420946612	0.0	1.015564983134143	-0.5518530097901322	0.0	0.8132697995976023	-0.3833535240253817	0.0	0.7460183358728745	-0.3540105147106899	0.0	0.7867377353882691	-0.34671397437590945	0.0	0.8209948224908376	-0.38598929699471746	0.0	0.861446769123317	-0.356584494715011	0.0	0.8613967904889769	-0.2915700342451635	0.0	0.8200764993481867	-0.38626025569354056	0.0	0.8678218532690514	-0.3561640775149754	0.0	0.8900298511577975	-0.306403522196913	0.0
22	0.7379454926624737	0.9357159902523525	-0.42384720808412507	0.0	0.937976055829145	-0.4235104643717426	0.0	1.0176293774911982	-0.37335262571088995	0.0	1.0368939171592377	-0.46564365727760326	0.0	1.0624194752486813	-0.48173280382855427	0.0	1.0626109544020659	-0.4838076979216309	0.0	1.0346276177949874	-0.4812349107853699	0.0	0.9330379797721473	-0.4227026238128517	0.0	1.0098659286656206	-0.37631722394760325	0.0	1.0343340999921722	-0.46238967701626527	0.0	1.059872205749113	-0.4805494173719773	0.0	1.0558312209112775	-0.4831138205791324	0.0	1.03210932331678	-0.48388710533870866	0.0	0.8052242561307169	-0.3833520438220927	0.0	0.7365700666364111	-0.36625046696080005	0.0	0.7754905435145039	-0.3514611114692611	0.0	0.8139688783868281	-0.383141656313187	0.0	0.8624983435585457	-0.3515919698842353	0.0	0.869673022540089	-0.2853818433222381	0.0	0.8142056317445088	-0.3855768508231262	0.0	0.8657053868888442	-0.35323172410083775	0.0	0.893387869651467	-0.30076042692992944	0.0
23	0.771488469601677	0.9392655263087841	-0.4054017017750832	0.0	0.9419796001887561	-0.40495215942993507	0.0	0.9953968115673102	-0.32627818409323245	0.0	1.039624624453437	-0.3997189510312892	0.0	1.0682021572694598	-0.39740184175141763	0.0	1.070246307555115	-0.4013214422526578	0.0	1.0423173255127989	-0.41434346175508074	0.0	0.9367761879261285	-0.40398999339847524	0.0	0.989293543015721	-0.3322943489482625	0.0	1.036950365765654	-0.39672837127845306	0.0	1.0629592261891596	-0.397364330118942	0.0	1.06089611835091	-0.40161794183193694	0.0	1.0409301480861624	-0.4158755879829113	0.0	0.8033688426669533	-0.3894415182829351	0.0	0.7352941557272386	-0.3857728559471821	0.0	0.7704968515497244	-0.3635830212604905	0.0	0.8131862568862414	-0.384906858971785	0.0	0.8666016811785708	-0.3471213722756756	0.0	0.8790611983638854	-0.2796646679227085	0.0	0.8140503394683734	-0.3903030082755693	0.0	0.8658378822424136	-0.35123363709018623	0.0	0.8945866918402704	-0.29359916794642504	0.0
24	0.8050314465408803	0.9439741566473349	-0.38721302607154434	0.0	0.9470260878856416	-0.3862957663789638	0.0	0.9658992730987888	-0.2923135726626961	0.0	1.030729784583095	-0.3382635282972628	0.0	1.0576883450874606	-0.31927904827809345	0.0	1.0611433190173407	-0.3246625973567863	0.0	1.038004293528309	-0.3501173269393048	0.0	0.9413927286833915	-0.38585661850646147	0.0	0.9621751343736102	-0.3020636642561534	0.0	1.0285800895879134	-0.33586130321794294	0.0	1.0515814124969085	-0.32091424227356574	0.0	1.0510275861079923	-0.32647305824883444	0.0	1.0381708108346324	-0.3510117215509994	0.0	0.8085610511024911	-0.4002909457365928	0.0	0.7436317625244552	-0.4107883478463765	0.0	0.7728004978551029	-0.3821898819977878	0.0	0.8188663043719248	-0.3901389226625612	0.0	0.8717805530506165	-0.3433266469566403	0.0	0.8852298535363633	-0.2748345818039053	0.0	0.8204012575716214	-0.39921716879984626	0.0	0.8678619368805365	-0.35063916811464224	0.0	0.8928399435626656	-0.2867545144677929	0.0
25	0.8385744234800837	0.9484087193254241	-0.3684912965435337	0.0	0.9512839845393937	-0.3668604459895481	0.0	0.9332337064254871	-0.2725100089046451	0.0	1.0088356221867552	-0.28545721894354475	0.0	1.0298965878327981	-0.25561043616763607	0.0	1.0337042152740352	-0.26193201132917143	0.0	1.0191298914190932	-0.2928475604177234	0.0	0.9457592837017157	-0.36748114685850736	0.0	0.9326864747776074	-0.2869164896544547	0.0	1.0081410647095777	-0.28361087168177274	0.0	1.0249946443042297	-0.2593624701445968	0.0	1.025437682181107	-0.2653640103471632	0.0	1.021466622673414	-0.29346790991689464	0.0	0.8211022460429627	-0.4138697303309051	0.0	0.762643119170465	-0.4384599084898357	0.0	0.7834975743815166	-0.40556098611933755	0.0	0.8307048121960804	-0.3975973265576563	0.0	0.8766317796486311	-0.340816373488654	0.0	0.8853637066518308	-0.2723224099909146	0.0	0.8336279425657862	-0.410451592124869	0.0	0.8718330685043146	-0.35226419314482615	0.0	0.8886021188142729	-0.2831163460606071	0.0
26	0.8721174004192871	0.95080747751862	-0.3494213176952652	0.0	0.9528322008179803	-0.3471916266822168	0.0	0.9011892425167741	-0.2659560840067621	0.0	0.9745785228680536	-0.2455484215315151	0.0	0.987228208552055	-0.21259121162563904	0.0	0.990035204082902	-0.21944512147435527	0.0	0.9856008041275387	-0.24760019932059918	0.0	0.9482886426270216	-0.3488631842936411	0.0	0.9044085935806208	-0.2853542617799691	0.0	0.9762390444765969	-0.2437393661720438	0.0	0.9847463923166262	-0.2186376471557745	0.0	0.9859706591449884	-0.22412381694201652	0.0	0.9909181764940321	-0.24783504991349	0.0	0.8406200657398615	-0.42761759158539225	0.0	0.792519828266807	-0.4652268342561441	0.0	0.8032875747069654	-0.43095993384467196	0.0	0.8480303448483285	-0.4059713264050848	0.0	0.8804944187927607	-0.3403375105553219	0.0	0.8789432712617066	-0.2742817607968558	0.0	0.8532947418063485	-0.42163547173130156	0.0	0.8775783639016906	-0.35625672499648425	0.0	0.8826699650091107	-0.28533011882216114	0.0
